<?xml version="1.0" ?><svg id="Icons" viewBox="0 0 48 48" xmlns="http://www.w3.org/2000/svg"><defs><style>.cls-1{fill:#009fd9;}.cls-2{fill:#00b8f0;}.cls-3{fill:none;}.cls-10,.cls-3,.cls-7,.cls-8{stroke:#45413c;stroke-linecap:round;stroke-linejoin:round;}.cls-4,.cls-8{fill:#45413c;}.cls-4{opacity:0.15;}.cls-5{fill:#a86c4d;}.cls-6{fill:#de926a;}.cls-7{fill:#ffcebf;}.cls-9{fill:#ffb59e;}.cls-10{fill:#ffe500;}</style></defs><title/><path class="cls-1" d="M30.24,28.83H17.76a8.65,8.65,0,0,0-8,5.72L8.3,38.35C7.1,41.48,9.24,45,12.48,45h23c3.24,0,5.38-3.52,4.18-6.65l-1.47-3.8A8.65,8.65,0,0,0,30.24,28.83Z" data-name="&lt;Path&gt;" id="_Path_"/><path class="cls-2" d="M39.7,38.35l-1.47-3.8a8.65,8.65,0,0,0-8-5.72H17.76a8.65,8.65,0,0,0-8,5.72L8.3,38.35A5,5,0,0,0,9.77,44a4.5,4.5,0,0,1,.25-.94l1.3-3.39a7.73,7.73,0,0,1,7.12-5.1H29.56a7.73,7.73,0,0,1,7.12,5.1L38,43.09a4.5,4.5,0,0,1,.25.94A5,5,0,0,0,39.7,38.35Z" data-name="&lt;Path&gt;" id="_Path_2"/><path class="cls-3" d="M30.24,28.83H17.76a8.65,8.65,0,0,0-8,5.72L8.3,38.35C7.1,41.48,9.24,45,12.48,45h23c3.24,0,5.38-3.52,4.18-6.65l-1.47-3.8A8.65,8.65,0,0,0,30.24,28.83Z" data-name="&lt;Path&gt;" id="_Path_3"/><ellipse class="cls-4" cx="24" cy="45.5" data-name="&lt;Ellipse&gt;" id="_Ellipse_" rx="17" ry="1.5"/><path class="cls-5" d="M24,15.1a10.32,10.32,0,0,0-2.44.29c-1.86.4-4.28,1.07-6.47.67a3.81,3.81,0,0,0,.84,3,8.93,8.93,0,0,0-1.75,5.29v4.86H33.82V24.38A9.57,9.57,0,0,0,24,15.1Z" data-name="&lt;Path&gt;" id="_Path_4"/><g data-name="&lt;Group&gt;" id="_Group_"><path class="cls-6" d="M24,15.1a10.32,10.32,0,0,0-2.44.29c-1.86.4-4.28,1.07-6.47.67a3.81,3.81,0,0,0,.84,3,10.44,10.44,0,0,0-.58.89c2.12.31,4.42-.32,6.21-.7A10.32,10.32,0,0,1,24,19a9.56,9.56,0,0,1,9.82,9.27V24.38A9.57,9.57,0,0,0,24,15.1Z" data-name="&lt;Path&gt;" id="_Path_5"/></g><path class="cls-3" d="M24,15.1a10.32,10.32,0,0,0-2.44.29c-1.86.4-4.28,1.07-6.47.67a3.81,3.81,0,0,0,.84,3,8.93,8.93,0,0,0-1.75,5.29v4.86H33.82V24.38A9.57,9.57,0,0,0,24,15.1Z" data-name="&lt;Path&gt;" id="_Path_6"/><path class="cls-7" d="M34.87,28.49A1.83,1.83,0,0,0,33.48,27l-.59-.17c-.89-.24-1.5-.05-1.5-1V25a1.31,1.31,0,0,0-1.86-1.12,15.84,15.84,0,0,1-5.53.91,16.17,16.17,0,0,1-5.53-.9A1.3,1.3,0,0,0,16.62,25v1.24c0,.88-.71.6-1.59.6a1.88,1.88,0,0,0-1.88,1.51,1.81,1.81,0,0,0,1.78,2.12h.12a9,9,0,0,0,17.9,0h.12A1.81,1.81,0,0,0,34.87,28.49Z" data-name="&lt;Path&gt;" id="_Path_7"/><path class="cls-8" d="M18.57,31.23a.77.77,0,1,0,.77-.77A.77.77,0,0,0,18.57,31.23Z" data-name="&lt;Path&gt;" id="_Path_8"/><path class="cls-8" d="M29.43,31.23a.77.77,0,1,1-.77-.77A.77.77,0,0,1,29.43,31.23Z" data-name="&lt;Path&gt;" id="_Path_9"/><ellipse class="cls-9" cx="18.06" cy="33.72" data-name="&lt;Ellipse&gt;" id="_Ellipse_2" rx="1" ry="0.6"/><ellipse class="cls-9" cx="29.94" cy="33.72" data-name="&lt;Ellipse&gt;" id="_Ellipse_3" rx="1" ry="0.6"/><line class="cls-3" data-name="&lt;Path&gt;" id="_Path_10" x1="22.8" x2="25.2" y1="35.48" y2="35.48"/><path class="cls-7" d="M24,43.83A1.18,1.18,0,0,0,25.17,45h5.77V41.59l-2.37-.2a4.17,4.17,0,0,0-2.41.53l-1.56.88A1.18,1.18,0,0,0,24,43.83Z" data-name="&lt;Path&gt;" id="_Path_11"/><line class="cls-3" data-name="&lt;Path&gt;" id="_Path_12" x1="30.94" x2="33.49" y1="41.59" y2="40.23"/><path class="cls-7" d="M24,43.83A1.18,1.18,0,0,1,22.83,45H17.06V41.59l2.37-.2a4.17,4.17,0,0,1,2.41.53l1.56.88A1.18,1.18,0,0,1,24,43.83Z" data-name="&lt;Path&gt;" id="_Path_13"/><line class="cls-3" data-name="&lt;Path&gt;" id="_Path_14" x1="17.06" x2="14.51" y1="41.59" y2="40.23"/><path class="cls-10" d="M27.89,9.6l2-3.07a.5.5,0,0,0-.29-.76l-2.23-.58a.51.51,0,0,0-.63.52L27,9.36A.5.5,0,0,0,27.89,9.6Z" data-name="&lt;Path&gt;" id="_Path_15"/><path class="cls-10" d="M34.46,12.46l2.86-2.27a.5.5,0,0,0,0-.81L35.36,8.11a.51.51,0,0,0-.76.29l-.94,3.54A.5.5,0,0,0,34.46,12.46Z" data-name="&lt;Path&gt;" id="_Path_16"/><path class="cls-10" d="M20.11,9.6l-2-3.07a.5.5,0,0,1,.29-.76l2.23-.58a.51.51,0,0,1,.63.52L21,9.36A.5.5,0,0,1,20.11,9.6Z" data-name="&lt;Path&gt;" id="_Path_17"/><path class="cls-10" d="M13.54,12.46l-2.86-2.27a.5.5,0,0,1,0-.81l1.92-1.27a.51.51,0,0,1,.76.29l.94,3.54A.5.5,0,0,1,13.54,12.46Z" data-name="&lt;Path&gt;" id="_Path_18"/></svg>